<svg width="16" height="16" viewBox="0 0 16 16" fill="none" xmlns="http://www.w3.org/2000/svg">
<path d="M7.61 1.62423C7.64172 1.54685 7.69574 1.48066 7.76519 1.43407C7.83464 1.38749 7.91637 1.36261 8 1.36261C8.08363 1.36261 8.16536 1.38749 8.23481 1.43407C8.30426 1.48066 8.35828 1.54685 8.39 1.62423L9.98375 5.45748C10.0136 5.5292 10.0626 5.59131 10.1255 5.63696C10.1883 5.68261 10.2626 5.71004 10.34 5.71623L14.4785 6.04773C14.8528 6.07773 15.0043 6.54498 14.7193 6.78873L11.5663 9.49023C11.5073 9.54062 11.4634 9.60626 11.4394 9.67994C11.4153 9.75363 11.412 9.83252 11.4298 9.90798L12.3935 13.9467C12.4129 14.0278 12.4078 14.1127 12.3789 14.1909C12.35 14.269 12.2986 14.3368 12.2312 14.3858C12.1638 14.4347 12.0834 14.4626 12.0002 14.4659C11.9169 14.4692 11.8346 14.4477 11.7635 14.4042L8.21975 12.2405C8.15358 12.2001 8.07754 12.1787 8 12.1787C7.92246 12.1787 7.84642 12.2001 7.78025 12.2405L4.2365 14.405C4.16544 14.4485 4.08309 14.4699 3.99984 14.4667C3.9166 14.4634 3.83619 14.4355 3.76878 14.3865C3.70136 14.3376 3.64997 14.2697 3.62109 14.1916C3.59221 14.1135 3.58713 14.0285 3.6065 13.9475L4.57025 9.90798C4.58812 9.83253 4.58484 9.75361 4.56076 9.6799C4.53667 9.6062 4.49273 9.54057 4.43375 9.49023L1.28075 6.78873C1.21726 6.7346 1.17126 6.66285 1.14857 6.58257C1.12589 6.50228 1.12754 6.41706 1.15332 6.33771C1.1791 6.25837 1.22785 6.18845 1.29339 6.13683C1.35893 6.08521 1.43832 6.0542 1.5215 6.04773L5.66 5.71623C5.73744 5.71004 5.81167 5.68261 5.87452 5.63696C5.93738 5.59131 5.98642 5.5292 6.01625 5.45748L7.61 1.62423Z" stroke="#006EFF" stroke-width="1.5" stroke-linecap="round" stroke-linejoin="round"/>
</svg>
